<?xml version="1.0" encoding="UTF-8"?>
<svg version="1.1" xmlns="http://www.w3.org/2000/svg" width="512" height="512">
<path d="M0 0 C2.04842884 1.44163011 3.90304504 2.96249158 5.7578125 4.64453125 C6.26699219 5.09957031 6.77617188 5.55460937 7.30078125 6.0234375 C11.4954393 10.33055287 13.86096727 15.62844881 16.45410156 20.97412109 C23.74123813 35.93139256 32.34443336 49.67482425 42.7578125 62.64453125 C43.4379541 63.49821289 43.4379541 63.49821289 44.13183594 64.36914062 C65.34478234 90.80397376 91.38515867 110.40184967 125.8203125 114.95703125 C156.70833654 118.14606028 186.1064747 111.51334838 211.3828125 93.08203125 C225.42206497 81.65057885 237.31623872 68.38809041 247.7578125 53.64453125 C248.20705078 53.01869141 248.65628906 52.39285156 249.11914062 51.74804688 C256.80542897 40.96891523 263.08074074 29.41304306 268.79394531 17.48046875 C274.03701667 6.59611808 281.49871407 0.06018346 292.7578125 -4.35546875 C302.45480913 -7.56141457 313.81980457 -5.77136061 322.7578125 -1.35546875 C332.61357992 4.30247181 338.89381781 12.78875818 342.3515625 23.48046875 C344.36857966 34.22496402 343.02368529 44.77050826 337.25 54.07421875 C330.68471464 63.14347341 322.60539421 67.88044387 312.62060547 72.38745117 C298.87815505 78.68296704 286.42421697 87.08579782 274.7578125 96.64453125 C274.23413086 97.06669922 273.71044922 97.48886719 273.17089844 97.92382812 C246.71428057 119.28831007 227.02241284 145.10618135 222.4453125 179.70703125 C219.20360207 211.10531228 226.0369354 242.43113997 245.9765625 267.49609375 C257.21473559 280.49023139 269.74211487 291.75129837 283.7578125 301.64453125 C284.38220215 302.09231934 285.0065918 302.54010742 285.64990234 303.00146484 C296.4305697 310.68966985 307.9871053 316.96640835 319.921875 322.68066406 C330.80622567 327.92373542 337.34216029 335.38543282 341.7578125 346.64453125 C344.96375832 356.34152788 343.17370436 367.70652332 338.7578125 376.64453125 C333.09987194 386.50029867 324.61358557 392.78053656 313.921875 396.23828125 C303.17737973 398.25529841 292.63183549 396.91040404 283.328125 391.13671875 C274.25887034 384.57143339 269.52189988 376.49211296 265.01489258 366.50732422 C258.71937671 352.7648738 250.31654593 340.31093572 240.7578125 328.64453125 C240.12456055 327.85900879 240.12456055 327.85900879 239.47851562 327.05761719 C218.11403368 300.60099932 192.2961624 280.90913159 157.6953125 276.33203125 C125.70646559 273.02934794 94.27776048 280.22067544 69.00390625 300.76171875 C58.22878926 310.15678804 48.46672872 320.44415606 40.00048828 331.96191406 C38.78309203 333.61030207 37.53719973 335.23331191 36.28515625 336.85546875 C27.38800077 348.60217808 20.57905605 361.76233106 14.15625 374.98828125 C8.96897827 385.39770058 1.5200039 391.42375865 -9.2421875 395.64453125 C-18.95306641 398.85506673 -30.28764439 397.04539885 -39.2421875 392.64453125 C-49.48432391 387.02139754 -55.31141667 378.71864862 -58.8515625 367.7578125 C-60.83633666 357.0201843 -59.50308495 346.51053698 -53.734375 337.21484375 C-47.16908964 328.14558909 -39.08976921 323.40861863 -29.10498047 318.90161133 C-15.36253005 312.60609546 -2.90859197 304.20326468 8.7578125 294.64453125 C9.54333496 294.0112793 9.54333496 294.0112793 10.34472656 293.36523438 C36.80134443 272.00075243 56.49321216 246.18288115 61.0703125 211.58203125 C64.31202293 180.18375022 57.4786896 148.85792253 37.5390625 123.79296875 C26.29858768 110.79616974 13.76935003 99.5475255 -0.2421875 89.64453125 C-0.85594238 89.20206055 -1.46969727 88.75958984 -2.10205078 88.30371094 C-11.35308682 81.66464358 -21.15931747 76.34946198 -31.296875 71.1875 C-44.9944611 64.18895885 -53.75390197 58.02778265 -58.88671875 42.72265625 C-60.83564675 31.32892331 -59.02356642 21.23144938 -53.3046875 11.26953125 C-40.24286262 -5.35460951 -18.76450768 -11.34370063 0 0 Z M-39.0546875 20.86328125 C-42.46923386 25.98510079 -43.14631572 31.65227719 -42.2421875 37.64453125 C-40.1390292 44.41343395 -36.84202564 48.99250795 -30.703125 52.58203125 C-25.18764791 54.9633166 -19.79931268 55.42297291 -14.0546875 53.58203125 C-8.70813949 51.20097748 -4.65206508 47.7123517 -1.3671875 42.89453125 C0.96053912 36.16998768 1.68222179 29.98570747 -1.3125 23.38671875 C-4.73590548 16.97142948 -9.47302513 14.0176284 -16.2421875 11.64453125 C-25.80255603 9.97434639 -33.17495677 13.32188749 -39.0546875 20.86328125 Z M286.1953125 20.83203125 C283.01993798 26.26264336 281.98526792 31.60689259 283.171875 37.80859375 C285.17918538 44.07236953 289.11498976 48.84260665 294.5078125 52.51953125 C301.23235607 54.84725787 307.41663628 55.56894054 314.015625 52.57421875 C320.43091427 49.15081327 323.38471535 44.41369362 325.7578125 37.64453125 C326.78942801 31.73942176 326.07543618 26.67644325 323.08984375 21.46484375 C319.41616216 16.44450468 314.92804028 12.87857681 308.7578125 11.64453125 C299.69821509 10.36779262 291.70518405 13.39765911 286.1953125 20.83203125 Z M12.7578125 51.64453125 C11.52756799 53.18983838 10.3241883 54.75656326 9.1328125 56.33203125 C5.69183013 60.71089871 2.46216885 63.70430853 -2.2421875 66.64453125 C1.29258149 69.56818104 4.96201926 72.20559739 8.73461914 74.8059082 C16.22922504 79.97971068 23.1356003 85.37469364 29.7578125 91.64453125 C31.12746509 92.83819496 32.50226516 94.02598497 33.8828125 95.20703125 C35.17872829 96.3480567 36.47048846 97.49382119 37.7578125 98.64453125 C38.67433594 99.46050781 38.67433594 99.46050781 39.609375 100.29296875 C64.77713773 124.01073692 77.61564283 157.66748777 78.9453125 191.70703125 C79.59859918 232.86409194 63.70759974 265.86823014 35.3828125 295.20703125 C30.80345031 299.70236844 25.78276678 303.6634707 20.7578125 307.64453125 C20.22816895 308.06702148 19.69852539 308.48951172 19.15283203 308.92480469 C12.31722875 314.36318707 5.4142634 319.39286777 -2.2421875 323.64453125 C0.16284303 326.11827694 2.49416722 328.44679729 5.2578125 330.51953125 C8.44643171 333.22985758 10.42344282 336.17632487 12.7578125 339.64453125 C15.68146229 336.10976226 18.31887864 332.44032449 20.91918945 328.66772461 C26.09299193 321.17311871 31.48797489 314.26674345 37.7578125 307.64453125 C38.95147621 306.27487866 40.13926622 304.90007859 41.3203125 303.51953125 C42.46133795 302.22361546 43.60710244 300.93185529 44.7578125 299.64453125 C45.57378906 298.72800781 45.57378906 298.72800781 46.40625 297.79296875 C70.12401817 272.62520602 103.78076902 259.78670092 137.8203125 258.45703125 C178.97737319 257.80374457 211.98151139 273.69474401 241.3203125 302.01953125 C245.81564969 306.59889344 249.77675195 311.61957697 253.7578125 316.64453125 C254.18030273 317.1741748 254.60279297 317.70381836 255.03808594 318.24951172 C260.47646832 325.085115 265.50614902 331.98808035 269.7578125 339.64453125 C272.23155819 337.23950072 274.56007854 334.90817653 276.6328125 332.14453125 C279.34313883 328.95591204 282.28960612 326.97890093 285.7578125 324.64453125 C282.22304351 321.72088146 278.55360574 319.08346511 274.78100586 316.4831543 C267.28639996 311.30935182 260.3800247 305.91436886 253.7578125 299.64453125 C252.38815991 298.45086754 251.01335984 297.26307753 249.6328125 296.08203125 C223.28865655 272.95186232 207.30019628 240.82120825 204.88232422 205.83544922 C202.68937104 167.24807313 214.62484419 133.37532101 240.3203125 104.45703125 C247.32655995 96.79432109 254.60986793 90.09980605 262.7578125 83.64453125 C263.28745605 83.22204102 263.81709961 82.79955078 264.36279297 82.36425781 C271.19839625 76.92587543 278.1013616 71.89619473 285.7578125 67.64453125 C283.35278197 65.17078556 281.02145778 62.84226521 278.2578125 60.76953125 C275.06919329 58.05920492 273.09218218 55.11273763 270.7578125 51.64453125 C267.83416271 55.17930024 265.19674636 58.84873801 262.59643555 62.62133789 C257.42263307 70.11594379 252.02765011 77.02231905 245.7578125 83.64453125 C244.56414879 85.01418384 243.37635878 86.38898391 242.1953125 87.76953125 C219.03422112 114.1489064 186.9154542 130.07940837 151.89697266 132.52001953 C113.29592161 134.76682803 79.44386567 122.73774867 50.5703125 97.08203125 C42.90760234 90.0757838 36.2130873 82.79247582 29.7578125 74.64453125 C29.33532227 74.1148877 28.91283203 73.58524414 28.47753906 73.03955078 C23.46256758 66.73614048 18.76986674 60.41955141 14.81640625 53.375 C14.46707031 52.80394531 14.11773437 52.23289063 13.7578125 51.64453125 C13.4278125 51.64453125 13.0978125 51.64453125 12.7578125 51.64453125 Z M-37.2421875 343.64453125 C-41.48361897 350.03011177 -43.57289129 355.98670757 -42.2421875 363.64453125 C-40.35802227 369.87335983 -36.60438136 374.06973534 -31.2421875 377.64453125 C-25.56583454 380.35930875 -19.64148124 380.70072206 -13.65234375 378.83984375 C-7.08478344 375.97579489 -3.36041639 372.07659749 -0.2421875 365.64453125 C1.70417344 359.25277805 1.02931244 353.80646574 -1.84765625 347.859375 C-5.07658434 342.73107745 -9.27270395 339.42553335 -14.8671875 337.20703125 C-23.29706991 335.80205085 -31.15807681 337.23154972 -37.2421875 343.64453125 Z M287.8203125 344.45703125 C283.79317834 349.53065967 282.51911115 354.07459491 282.7578125 360.51953125 C283.53613985 366.26516126 285.7189593 370.49121662 289.7578125 374.64453125 C294.96429731 378.42143887 300.20273329 380.42089645 306.6640625 380 C312.91289426 378.93909759 317.29626659 375.90327962 321.7578125 371.64453125 C325.6971747 366.07508814 326.6476171 360.35470475 325.7578125 353.64453125 C323.58622434 346.60011113 320.18307102 342.52168247 313.94140625 338.703125 C304.4399996 334.09689745 294.79237347 336.99214269 287.8203125 344.45703125 Z " fill="#000000" transform="translate(114.2421875,60.35546875)"/>
<path d="M0 0 C1.64562411 1.392656 3.27005899 2.81064814 4.875 4.25 C5.76960937 5.05050781 6.66421875 5.85101563 7.5859375 6.67578125 C24.54772781 22.71108722 35.17781427 44.30775355 36.2578125 67.73828125 C37.0212982 97.16868954 28.97223399 121.04484375 8.51953125 142.69140625 C-11.76659313 162.3183065 -36.91248078 168.97986393 -64.43359375 168.55859375 C-89.29158536 167.71896152 -110.97219086 155.76287933 -127.88671875 137.94140625 C-132.78427288 132.53389913 -136.54185772 126.57996228 -140.125 120.25 C-140.61355469 119.42371094 -141.10210937 118.59742188 -141.60546875 117.74609375 C-152.35729344 98.19431409 -153.89001762 73.43823979 -149.26953125 51.95703125 C-147.81609172 48.51937393 -145.98045335 46.62669471 -143.125 44.25 C-139.16023594 43.62398462 -137.12737979 43.59053961 -133.75 45.8125 C-131.29613347 49.49329979 -130.65623755 52.86441685 -131.51953125 57.2578125 C-131.69871094 57.99773437 -131.87789063 58.73765625 -132.0625 59.5 C-136.28870223 78.70736048 -132.16726333 98.59212336 -122.125 115.25 C-110.63683724 132.74477071 -93.98150448 144.84158215 -73.36328125 149.359375 C-52.77083343 153.26354091 -32.84042821 149.15920206 -15.125 138.25 C2.29460599 126.13574873 13.03349483 109.02927395 17.484375 88.4296875 C20.12652997 66.92254601 16.31424012 46.30771396 3.33203125 28.671875 C-9.34849737 12.46871965 -27.70518594 1.83307151 -48.125 -0.75 C-58.32050353 -1.56689383 -68.23013621 -0.95725507 -78.2421875 1.10546875 C-81.8172157 1.28470458 -83.30356143 0.37608403 -86.125 -1.75 C-88.24274618 -4.44531332 -88.12246873 -5.82214132 -88 -9.3125 C-87.125 -12.75 -87.125 -12.75 -85.47265625 -14.359375 C-61.0599652 -28.82013708 -20.11813866 -15.54150048 0 0 Z " fill="#000000" transform="translate(476.125,343.75)"/>
<path d="M0 0 C19.47225463 15.48902078 32.30495455 36.2068088 36.81640625 60.85546875 C38.20053878 73.60267026 39.25971471 89.57386078 34.2265625 101.6328125 C30.12571653 106.49084081 30.12571653 106.49084081 25.6640625 107.1953125 C22.2265625 106.6328125 22.2265625 106.6328125 19.8515625 105.0703125 C17.39769597 101.38951271 16.75780005 98.01839565 17.62109375 93.625 C17.80027344 92.88507813 17.97945312 92.14515625 18.1640625 91.3828125 C22.56837348 71.36597846 17.84759184 50.8463683 7.2265625 33.6328125 C-4.09178268 16.93983413 -21.65832865 5.24024451 -41.44140625 1.2578125 C-63.12239187 -2.29926368 -83.51299581 2.43187295 -101.68359375 14.578125 C-117.5065936 26.65936446 -127.21118471 43.14597585 -131.3828125 62.453125 C-134.02496747 83.96026649 -130.21267762 104.57509854 -117.23046875 122.2109375 C-104.65357823 138.27808758 -86.0948832 149.03646072 -65.7734375 151.6328125 C-62.77208325 151.79296667 -59.77868253 151.8218245 -56.7734375 151.8203125 C-55.52409424 151.82454224 -55.52409424 151.82454224 -54.24951172 151.82885742 C-47.86917829 151.78787158 -41.91404397 151.0666001 -35.65625 149.77734375 C-32.0812218 149.59810792 -30.59487607 150.50672847 -27.7734375 152.6328125 C-25.65569132 155.32812582 -25.77596877 156.70495382 -25.8984375 160.1953125 C-26.7734375 163.6328125 -26.7734375 163.6328125 -28.42578125 165.2421875 C-42.00838896 173.28779207 -64.25148225 170.86420993 -78.99609375 167.67578125 C-104.10648361 160.74250918 -125.38499882 145.21286756 -138.65087891 122.67138672 C-142.00422259 116.58169126 -144.54108635 110.20584645 -146.7734375 103.6328125 C-147.134375 102.57578125 -147.4953125 101.51875 -147.8671875 100.4296875 C-154.1995311 77.0938287 -150.35763005 51.20930728 -138.875 30.21875 C-135.9053907 25.03907136 -132.54532677 20.25966334 -128.7734375 15.6328125 C-128.08636719 14.78203125 -127.39929688 13.93125 -126.69140625 13.0546875 C-95.74159387 -23.30437137 -37.88153595 -27.72966031 0 0 Z " fill="#000000" transform="translate(149.7734375,17.3671875)"/>
<path d="M0 0 C1.64582629 1.39241706 3.27018942 2.81050271 4.875 4.25 C5.78121094 5.06210937 6.68742188 5.87421875 7.62109375 6.7109375 C23.99468823 22.19885904 35.44528502 44.84100982 36.078125 67.55859375 C36.41247121 93.64824621 30.77441261 117.29500113 12.875 137.25 C12.06289063 138.15621094 11.25078125 139.06242188 10.4140625 139.99609375 C-5.33626846 156.64710346 -28.16495239 167.78552088 -51.25 168.453125 C-80.2877624 168.835753 -80.2877624 168.835753 -87.125 162.25 C-88.19093258 159.59627201 -88.34657751 157.0917315 -88.125 154.25 C-86.625 151.3125 -86.625 151.3125 -84.125 149.25 C-80.03688879 148.02356664 -76.93272115 148.21195032 -72.875 149.1875 C-53.73821155 153.39817424 -33.70353566 149.34044051 -17.125 139.25 C0.12861902 128.0856026 12.05257786 111.6544734 16.84326172 91.60253906 C21.07047624 70.60348302 16.85177577 50.41092828 5.875 32.25 C-5.77003818 14.82920995 -23.34975776 4.24969975 -43.53369141 -0.29199219 C-63.88646091 -3.88929722 -84.98445185 0.8622179 -101.94335938 12.49755859 C-118.4811314 24.67145127 -128.49005535 42.07966933 -132.71875 62.0546875 C-133.24781919 66.21602019 -133.31539555 70.30889985 -133.3125 74.5 C-133.31386963 75.3446582 -133.31523926 76.18931641 -133.31665039 77.05957031 C-133.2756158 82.31807706 -132.75509778 87.11919475 -131.5234375 92.2421875 C-130.87069224 95.53151164 -131.16869192 98.06230639 -132.125 101.25 C-134.71303981 104.13381579 -136.32029549 105.0991179 -140.125 105.8125 C-144.19689464 105.04901976 -145.47247714 103.38518805 -148.125 100.25 C-155.6288983 80.60668943 -151.90806577 55.63284595 -143.8125 36.8125 C-133.16314458 13.49559884 -114.24671942 -4.63518025 -90.125 -13.75 C-59.58623051 -23.69441779 -25.8782017 -19.99121743 0 0 Z " fill="#000000" transform="translate(476.125,18.75)"/>
<path d="M0 0 C2.48645156 2.39499587 2.60948367 4.29356504 2.85546875 7.6328125 C2.69921875 9.63671875 2.69921875 9.63671875 1.19921875 12.57421875 C-2.12999736 15.32082204 -3.98311147 15.56707891 -8.30078125 15.63671875 C-9.72375768 15.35433821 -11.14024941 15.03833616 -12.55078125 14.69921875 C-26.30755691 11.66771044 -40.04683852 13.39073932 -53.30078125 17.63671875 C-54.68330078 18.06984375 -54.68330078 18.06984375 -56.09375 18.51171875 C-74.02059886 24.89584299 -87.27379148 38.90938044 -96.05078125 55.32421875 C-104.64371958 73.45394219 -106.63296508 94.51863591 -100.03710938 113.69091797 C-92.43549358 133.7787422 -79.00959332 149.5711725 -59.30078125 158.63671875 C-39.19691785 166.84066986 -17.31355775 167.39629404 2.78515625 158.9765625 C21.33626149 150.65432445 34.87510555 136.50523565 42.69921875 117.63671875 C46.06980923 108.14072826 47.89366252 99.43732381 47.88671875 89.38671875 C47.88808838 88.54206055 47.88945801 87.69740234 47.89086914 86.82714844 C47.84983455 81.56864169 47.32931653 76.767524 46.09765625 71.64453125 C45.44491099 68.35520711 45.74291067 65.82441236 46.69921875 62.63671875 C49.28725856 59.75290296 50.89451424 58.78760085 54.69921875 58.07421875 C58.77285576 58.83802569 60.04735835 60.49804339 62.69921875 63.63671875 C70.06931035 83.15614224 66.52712915 108.4805676 58.36328125 127.1015625 C46.8182939 151.62788539 28.31207104 167.98647445 3.390625 177.9609375 C-19.17218072 185.85351844 -44.77790162 184.86580826 -66.5703125 174.9765625 C-67.47136719 174.53441406 -68.37242188 174.09226562 -69.30078125 173.63671875 C-70.69876953 172.95802734 -70.69876953 172.95802734 -72.125 172.265625 C-94.06255451 160.97558649 -109.88182822 141.20218134 -117.51953125 117.921875 C-125.25489081 91.59402622 -121.9535633 66.19909531 -109.48828125 42.01171875 C-97.63438052 21.01166111 -77.53538017 5.34820577 -54.34545898 -1.1472168 C-38.70872193 -5.31688495 -14.73268256 -8.72955214 0 0 Z " fill="#000000" transform="translate(121.30078125,329.36328125)"/>
</svg>
